<svg xmlns="http://www.w3.org/2000/svg" viewBox="0 0 600 500">
  <defs><linearGradient id="bg" x2="0" y2="1"><stop stop-color="#d6a87b"/><stop offset="1" stop-color="#75523b"/></linearGradient><filter id="s"><feDropShadow dy="18" stdDeviation="20" flood-opacity=".3"/></filter></defs>
  <rect width="600" height="500" fill="url(#bg)"/><rect x="82" y="79" width="436" height="342" rx="105" fill="#f6eee2" filter="url(#s)"/>
  <path d="M108 240c76-70 166-93 248-62 63 24 108 80 139 147-107 75-301 81-387-7z" fill="#945130"/>
  <path d="M112 236c49-93 151-100 211-55 33 24 51 59 66 103-77 50-189 65-281 22z" fill="#fffaf1"/>
  <g transform="rotate(-10 345 250)"><rect x="258" y="151" width="177" height="191" rx="43" fill="#d89d43"/><g stroke="#f5cb6b" stroke-width="8"><path d="M284 160v168M315 153v184M347 151v189M380 158v171M410 172v141"/></g><g stroke="#9d6531" stroke-width="5"><path d="M270 202h154M264 250h169M268 297h157"/></g></g>
  <g fill="#d84f3f"><ellipse cx="174" cy="338" rx="30" ry="20"/><ellipse cx="207" cy="353" rx="27" ry="17"/></g><g fill="#5c8d4a"><circle cx="452" cy="192" r="18"/><circle cx="469" cy="213" r="14"/></g>
</svg>
