<svg xmlns="http://www.w3.org/2000/svg" viewBox="0 0 600 500">
  <defs><linearGradient id="table" x2="1" y2="1"><stop stop-color="#4c3328"/><stop offset="1" stop-color="#1f1714"/></linearGradient><radialGradient id="plate"><stop stop-color="#fffdf8"/><stop offset=".8" stop-color="#ede7dc"/><stop offset="1" stop-color="#b7a898"/></radialGradient><linearGradient id="fish" x2="1" y2="1"><stop stop-color="#ffbd86"/><stop offset=".55" stop-color="#ff805a"/><stop offset="1" stop-color="#cf4e3c"/></linearGradient></defs>
  <rect width="600" height="500" fill="url(#table)"/><circle cx="465" cy="58" r="150" fill="#ffb56a" opacity=".24"/><circle cx="300" cy="258" r="204" fill="url(#plate)"/><circle cx="300" cy="258" r="158" fill="#f7f1e5"/><path d="M180 294c24-89 108-141 218-104 27 73-35 168-137 171-45 1-72-21-81-67z" fill="#fffaf0"/><g fill="#4f8c58"><ellipse cx="194" cy="305" rx="41" ry="25" transform="rotate(-30 194 305)"/><ellipse cx="222" cy="341" rx="44" ry="24" transform="rotate(22 222 341)"/><ellipse cx="420" cy="309" rx="42" ry="24" transform="rotate(25 420 309)"/><ellipse cx="397" cy="342" rx="37" ry="21" transform="rotate(-24 397 342)"/></g><rect x="225" y="157" width="210" height="130" rx="37" fill="url(#fish)" transform="rotate(8 330 222)"/><g stroke="#ffd0ad" stroke-width="9" opacity=".78"><path d="M255 177l147 86M278 164l144 84M239 211l143 83"/></g><g fill="#f4c744"><circle cx="275" cy="330" r="8"/><circle cx="309" cy="344" r="7"/><circle cx="342" cy="326" r="8"/></g><g fill="#16251c"><ellipse cx="290" cy="203" rx="4" ry="9"/><ellipse cx="343" cy="238" rx="4" ry="9"/><ellipse cx="383" cy="207" rx="4" ry="9"/></g>
</svg>
